<svg width="25" height="31" viewBox="0 0 25 31" fill="none" xmlns="http://www.w3.org/2000/svg">
<path d="M7.55731 7.53299C8.80757 7.49639 9.84438 7.92331 10.8873 8.31364C11.3508 8.49051 11.8143 8.66738 12.2961 8.79545C12.6743 8.89913 13.0402 8.85034 13.4 8.71617C14.0221 8.49051 14.6381 8.26485 15.2602 8.03309C16.3458 7.63057 17.4619 7.35612 18.6207 7.42931C20.7858 7.56348 22.6215 8.40513 24.0182 10.1067C24.2621 10.3995 24.2438 10.43 23.9389 10.6434C21.6762 12.2352 20.6882 14.4247 20.9931 17.1631C21.2615 19.5966 22.5483 21.3408 24.7195 22.4447C25.0001 22.585 25.055 22.7131 24.9513 22.9997C24.2255 24.9819 23.2009 26.7932 21.8592 28.4216C21.4566 28.9095 21.048 29.3852 20.5723 29.7939C19.505 30.7026 18.2974 30.9039 16.9496 30.5501C16.2604 30.3672 15.62 30.0561 14.943 29.8305C13.6379 29.4035 12.351 29.4828 11.0581 29.8975C10.3811 30.1171 9.7407 30.416 9.05153 30.605C7.70978 30.977 6.57539 30.6477 5.57517 29.7085C3.87969 28.1228 2.62332 26.226 1.68409 24.1219C0.994921 22.5972 0.500912 20.9871 0.232562 19.316C-0.102876 17.2485 -0.127271 15.1932 0.507011 13.1744C1.01932 11.5216 1.90365 10.1067 3.2759 9.03941C4.55666 8.04529 6.01429 7.50859 7.55731 7.53299Z" fill="#191919"/>
<path d="M12.4609 6.43534C12.5219 4.502 13.3635 2.95288 14.7967 1.69652C15.8335 0.787785 17.0472 0.263282 18.389 0.0132285C18.5963 -0.0233648 18.6817 0.00712959 18.6878 0.238887C18.7061 2.53206 17.8584 4.42271 16.108 5.91084C15.1627 6.71589 14.0832 7.11231 12.8451 7.12451C12.5402 7.13061 12.4121 7.04523 12.4548 6.73418C12.4731 6.6427 12.4609 6.53902 12.4609 6.43534Z" fill="#191919"/>
</svg>
