<svg width="194" height="62" viewBox="0 0 194 62" fill="none" xmlns="http://www.w3.org/2000/svg">
<rect x="0.5" y="0.5" width="193" height="61" rx="10" fill="#18181B"/>
<path d="M79.925 45.2362L78.1976 40.7975H71.1533L69.4708 45.2362H67.1152L73.4416 29.3421H75.9766L82.303 45.2362H79.925ZM74.653 31.6287L71.9385 38.7575H77.4124L74.653 31.6287ZM86.3048 49.4956H84.2184V34.4533H86.2599V36.1347C86.574 35.5668 87.0451 35.1035 87.6733 34.7448C88.3014 34.3861 89.0343 34.2068 89.8718 34.2068C91.4272 34.2068 92.6387 34.7373 93.5061 35.7984C94.3885 36.8595 94.8297 38.2046 94.8297 39.8336C94.8297 41.4775 94.3735 42.8376 93.4612 43.9136C92.5639 44.9896 91.345 45.5277 89.8045 45.5277C89.0118 45.5277 88.3089 45.3633 87.6957 45.0345C87.0825 44.7057 86.6189 44.2872 86.3048 43.7791V49.4956ZM92.676 39.8336C92.676 38.7426 92.3844 37.8459 91.8011 37.1435C91.2328 36.4261 90.4626 36.0674 89.4904 36.0674C88.5332 36.0674 87.7555 36.4261 87.1573 37.1435C86.574 37.8459 86.2824 38.7426 86.2824 39.8336C86.2824 40.9545 86.574 41.8736 87.1573 42.591C87.7555 43.2934 88.5332 43.6446 89.4904 43.6446C90.4476 43.6446 91.2178 43.2934 91.8011 42.591C92.3844 41.8736 92.676 40.9545 92.676 39.8336ZM99.6031 49.4956H97.5168V34.4533H99.5582V36.1347C99.8723 35.5668 100.343 35.1035 100.972 34.7448C101.6 34.3861 102.333 34.2068 103.17 34.2068C104.726 34.2068 105.937 34.7373 106.804 35.7984C107.687 36.8595 108.128 38.2046 108.128 39.8336C108.128 41.4775 107.672 42.8376 106.76 43.9136C105.862 44.9896 104.643 45.5277 103.103 45.5277C102.31 45.5277 101.607 45.3633 100.994 45.0345C100.381 44.7057 99.9172 44.2872 99.6031 43.7791V49.4956ZM105.974 39.8336C105.974 38.7426 105.683 37.8459 105.099 37.1435C104.531 36.4261 103.761 36.0674 102.789 36.0674C101.832 36.0674 101.054 36.4261 100.456 37.1435C99.8723 37.8459 99.5807 38.7426 99.5807 39.8336C99.5807 40.9545 99.8723 41.8736 100.456 42.591C101.054 43.2934 101.832 43.6446 102.789 43.6446C103.746 43.6446 104.516 43.2934 105.099 42.591C105.683 41.8736 105.974 40.9545 105.974 39.8336ZM126.788 32.9514L124.814 33.6463C124.71 32.9588 124.373 32.3386 123.805 31.7856C123.236 31.2177 122.451 30.9338 121.449 30.9338C120.567 30.9338 119.834 31.1878 119.251 31.696C118.667 32.2041 118.375 32.8318 118.375 33.5791C118.375 34.1619 118.547 34.6551 118.891 35.0586C119.251 35.4621 119.759 35.7386 120.417 35.8881L122.795 36.4037C124.111 36.6876 125.128 37.2257 125.846 38.0178C126.564 38.7949 126.923 39.7439 126.923 40.8648C126.923 42.1501 126.415 43.256 125.398 44.1826C124.381 45.1092 123.057 45.5725 121.427 45.5725C119.647 45.5725 118.248 45.1092 117.231 44.1826C116.229 43.2411 115.646 42.1277 115.481 40.8424L117.59 40.1699C117.68 41.1263 118.054 41.9334 118.712 42.591C119.37 43.2485 120.268 43.5773 121.404 43.5773C122.451 43.5773 123.259 43.3382 123.827 42.86C124.396 42.3817 124.68 41.7765 124.68 41.0441C124.68 40.4463 124.478 39.9307 124.074 39.4973C123.67 39.049 123.079 38.7426 122.302 38.5782L120.036 38.085C118.854 37.8309 117.912 37.3303 117.209 36.583C116.506 35.8358 116.154 34.8868 116.154 33.736C116.154 32.4806 116.663 31.3821 117.68 30.4406C118.712 29.4841 119.954 29.0059 121.404 29.0059C123.035 29.0059 124.283 29.4019 125.151 30.194C126.018 30.9861 126.564 31.9052 126.788 32.9514ZM132.33 31.0459V34.4533H134.663V36.3589H132.33V41.9633C132.33 42.4714 132.442 42.845 132.666 43.0841C132.905 43.3233 133.294 43.4428 133.833 43.4428C134.147 43.4428 134.423 43.4129 134.663 43.3532V45.1466C134.304 45.2811 133.825 45.3483 133.227 45.3483C132.3 45.3483 131.567 45.0793 131.028 44.5413C130.49 44.0033 130.221 43.2485 130.221 42.2771V36.3589H128.157V34.4533H128.74C129.294 34.4533 129.705 34.3039 129.974 34.005C130.258 33.6911 130.4 33.2876 130.4 32.7944V31.0459H132.33ZM139.589 42.6806C140.247 43.3532 141.047 43.6894 141.989 43.6894C142.931 43.6894 143.724 43.3532 144.367 42.6806C145.025 41.9932 145.354 41.0441 145.354 39.8336C145.354 38.638 145.025 37.7039 144.367 37.0314C143.724 36.3439 142.931 36.0002 141.989 36.0002C141.047 36.0002 140.247 36.3439 139.589 37.0314C138.946 37.7039 138.624 38.638 138.624 39.8336C138.624 41.0441 138.946 41.9932 139.589 42.6806ZM138.018 35.7536C139.065 34.6626 140.389 34.1171 141.989 34.1171C143.589 34.1171 144.905 34.6626 145.937 35.7536C146.984 36.8296 147.508 38.1896 147.508 39.8336C147.508 41.4925 146.992 42.8674 145.96 43.9584C144.928 45.0345 143.604 45.5725 141.989 45.5725C140.374 45.5725 139.05 45.0345 138.018 43.9584C136.986 42.8674 136.47 41.4925 136.47 39.8336C136.47 38.1896 136.986 36.8296 138.018 35.7536ZM156.196 34.3413V36.583C155.882 36.5382 155.575 36.5158 155.276 36.5158C153.302 36.5158 152.315 37.6217 152.315 39.8336V45.2362H150.206V34.4533H152.27V36.3364C152.928 34.9615 154.005 34.274 155.501 34.274C155.74 34.274 155.972 34.2964 156.196 34.3413ZM159.702 38.7351H165.602C165.572 37.9281 165.303 37.2705 164.795 36.7624C164.286 36.2393 163.568 35.9777 162.641 35.9777C161.804 35.9777 161.116 36.2542 160.577 36.8072C160.039 37.3452 159.747 37.9879 159.702 38.7351ZM165.916 41.5373L167.734 42.165C167.42 43.1663 166.836 43.9883 165.984 44.631C165.131 45.2587 164.099 45.5725 162.888 45.5725C161.377 45.5725 160.091 45.0569 159.029 44.0257C157.982 42.9795 157.459 41.5747 157.459 39.8112C157.459 38.1672 157.967 36.8072 158.984 35.7312C160.001 34.6551 161.213 34.1171 162.619 34.1171C164.249 34.1171 165.52 34.6327 166.432 35.6639C167.345 36.6802 167.801 38.0476 167.801 39.7663C167.801 40.0353 167.786 40.2595 167.756 40.4389H159.635C159.65 41.3953 159.964 42.18 160.577 42.7927C161.205 43.4055 161.976 43.7118 162.888 43.7118C164.428 43.7118 165.438 42.987 165.916 41.5373Z" fill="white"/>
<path opacity="0.6" d="M68.7614 19.5899V15.7212H69.7101C70.7014 15.7212 71.5219 16.3447 71.5219 17.6598C71.5219 18.975 70.6929 19.5899 69.7015 19.5899H68.7614ZM69.7442 20.683C71.4706 20.683 72.744 19.5728 72.744 17.6598C72.744 15.7468 71.4791 14.6281 69.7528 14.6281H67.582V20.683H69.7442ZM75.6979 17.6513C75.6979 16.2849 76.6551 15.6358 77.5866 15.6358C78.5267 15.6358 79.4839 16.2849 79.4839 17.6513C79.4839 19.0177 78.5267 19.6667 77.5866 19.6667C76.6551 19.6667 75.6979 19.0177 75.6979 17.6513ZM74.4758 17.6598C74.4758 19.607 75.9457 20.8111 77.5866 20.8111C79.236 20.8111 80.706 19.607 80.706 17.6598C80.706 15.7041 79.236 14.5 77.5866 14.5C75.9457 14.5 74.4758 15.7041 74.4758 17.6598ZM88.2797 18.8127L86.9294 14.6281H85.7073L84.3655 18.7956L83.2545 14.6281H82.0067L83.6904 20.683H84.921L86.3055 16.3703L87.69 20.683H88.9036L90.5786 14.6281H89.3736L88.2797 18.8127ZM97.6151 20.683V14.6281H96.4357V18.6334L93.9146 14.6281H92.4446V20.683H93.624V16.3874L96.3759 20.683H97.6151ZM103.945 20.683V19.5557H101.244V14.6281H100.065V20.683H103.945ZM106.578 17.6513C106.578 16.2849 107.535 15.6358 108.467 15.6358C109.407 15.6358 110.364 16.2849 110.364 17.6513C110.364 19.0177 109.407 19.6667 108.467 19.6667C107.535 19.6667 106.578 19.0177 106.578 17.6513ZM105.356 17.6598C105.356 19.607 106.826 20.8111 108.467 20.8111C110.116 20.8111 111.586 19.607 111.586 17.6598C111.586 15.7041 110.116 14.5 108.467 14.5C106.826 14.5 105.356 15.7041 105.356 17.6598ZM117.495 20.683H118.777L116.47 14.6281H115.102L112.778 20.683H114.026L114.53 19.2995H116.991L117.495 20.683ZM115.761 15.9347L116.598 18.2235H114.923L115.761 15.9347ZM121.8 19.5899V15.7212H122.748C123.74 15.7212 124.56 16.3447 124.56 17.6598C124.56 18.975 123.731 19.5899 122.74 19.5899H121.8ZM122.782 20.683C124.509 20.683 125.782 19.5728 125.782 17.6598C125.782 15.7468 124.517 14.6281 122.791 14.6281H120.62V20.683H122.782ZM131.916 17.6513C131.916 16.2849 132.873 15.6358 133.805 15.6358C134.745 15.6358 135.702 16.2849 135.702 17.6513C135.702 19.0177 134.745 19.6667 133.805 19.6667C132.873 19.6667 131.916 19.0177 131.916 17.6513ZM130.694 17.6598C130.694 19.607 132.164 20.8111 133.805 20.8111C135.454 20.8111 136.924 19.607 136.924 17.6598C136.924 15.7041 135.454 14.5 133.805 14.5C132.164 14.5 130.694 15.7041 130.694 17.6598ZM144.185 20.683V14.6281H143.006V18.6334L140.485 14.6281H139.015V20.683H140.194V16.3874L142.946 20.683H144.185ZM154.276 15.7468V14.6281H149.26V15.7468H151.174V20.683H152.362V15.7468H154.276ZM161.183 20.683V14.6281H159.995V17.062H157.354V14.6281H156.175V20.683H157.354V18.1722H159.995V20.683H161.183ZM167.43 20.683V19.5728H164.815V18.1722H167.182V17.1218H164.815V15.7383H167.43V14.6281H163.636V20.683H167.43Z" fill="white"/>
<path d="M52.8685 38.8489C52.1748 40.384 51.8436 41.0693 50.9503 42.4257C49.7058 44.3198 47.9497 46.679 45.7737 46.699C43.8409 46.717 43.3442 45.442 40.7201 45.4574C38.0962 45.4727 37.5494 46.7217 35.6164 46.7037C33.4404 46.6844 31.778 44.5539 30.532 42.6585C27.0494 37.361 26.6856 31.1448 28.8334 27.8402C30.3598 25.4903 32.7688 24.1173 35.0329 24.1173C37.3384 24.1173 38.7879 25.3802 40.6948 25.3802C42.5442 25.3802 43.6706 24.1152 46.3366 24.1152C48.3517 24.1152 50.4869 25.2115 52.0086 27.1055C47.023 29.835 47.8336 36.9467 52.8685 38.8489Z" fill="white"/>
<path d="M44.5953 20.8005C45.5641 19.5581 46.2985 17.8055 46.0314 16.0127C44.4491 16.1208 42.5996 17.127 41.5193 18.438C40.5385 19.6276 39.7286 21.3923 40.0437 23.1076C41.7697 23.1617 43.5571 22.1308 44.5953 20.8005Z" fill="white"/>
</svg>
