<svg width="202" height="64" viewBox="0 0 202 64" fill="none" xmlns="http://www.w3.org/2000/svg">
<rect x="0.5" y="0.5" width="200.97" height="63" rx="10" fill="white"/>
<path d="M50.7588 41.5492C49.6801 43.1356 48.5647 44.7123 46.804 44.7451C45.0703 44.7779 44.5145 43.7119 42.5371 43.7119C40.5568 43.7119 39.9365 44.7123 38.3001 44.7779C36.6001 44.8424 35.3065 43.0652 34.2191 41.4856C31.998 38.257 30.3028 32.3557 32.5826 28.3734C33.7124 26.3967 35.7351 25.1448 37.9283 25.112C39.5975 25.0812 41.1752 26.2444 42.1952 26.2444C43.2162 26.2444 45.1319 24.847 47.144 25.0522C47.9868 25.0879 50.3514 25.3944 51.8703 27.6294C51.7509 27.7084 49.0482 29.29 49.081 32.5851C49.1137 36.5212 52.5099 37.829 52.5484 37.8473C52.5186 37.9399 52.0062 39.7151 50.7588 41.5483V41.5492ZM43.3635 20.7287C44.2959 19.63 45.8707 18.8127 47.171 18.7578C47.3376 20.2844 46.727 21.813 45.8254 22.9136C44.9219 24.0123 43.4425 24.8701 41.9919 24.7544C41.7945 23.2615 42.5256 21.705 43.3635 20.7287Z" fill="#322030"/>
<path d="M75.2244 39.1299H73.7644L79.0244 24.8099H80.8044L86.1244 39.1299H84.6244L83.2244 35.3299H76.6244L75.2244 39.1299ZM79.7244 26.8299L77.0644 34.0699H82.7644L80.0844 26.8299C80.0244 26.6299 79.9244 26.3899 79.9044 26.2499C79.8844 26.3699 79.8044 26.6299 79.7244 26.8299ZM87.815 43.3499V29.4499H89.015L89.155 31.4099C89.835 29.9099 91.195 29.1899 92.815 29.1899C95.615 29.1899 97.295 31.3299 97.295 34.2499C97.295 37.1699 95.675 39.3699 92.815 39.3699C91.175 39.3699 89.875 38.6699 89.195 37.2699V43.3499H87.815ZM89.215 34.2899C89.215 36.5099 90.455 38.1299 92.575 38.1299C94.675 38.1299 95.895 36.5099 95.895 34.2899C95.895 32.0499 94.675 30.4499 92.575 30.4499C90.455 30.4499 89.215 32.0499 89.215 34.2899ZM99.4947 43.3499V29.4499H100.695L100.835 31.4099C101.515 29.9099 102.875 29.1899 104.495 29.1899C107.295 29.1899 108.975 31.3299 108.975 34.2499C108.975 37.1699 107.355 39.3699 104.495 39.3699C102.855 39.3699 101.555 38.6699 100.875 37.2699V43.3499H99.4947ZM100.895 34.2899C100.895 36.5099 102.135 38.1299 104.255 38.1299C106.355 38.1299 107.575 36.5099 107.575 34.2899C107.575 32.0499 106.355 30.4499 104.255 30.4499C102.135 30.4499 100.895 32.0499 100.895 34.2899ZM116.161 28.5299C116.161 26.1299 118.081 24.5499 120.961 24.5499C123.541 24.5499 125.241 25.9899 125.461 28.3899H124.001C123.841 26.7699 122.741 25.8499 120.941 25.8499C118.921 25.8499 117.601 26.8899 117.601 28.5099C117.601 29.7699 118.341 30.5699 119.841 30.9499L122.301 31.5499C124.541 32.0899 125.701 33.3699 125.701 35.3099C125.701 37.7899 123.781 39.3699 120.821 39.3699C118.041 39.3699 116.161 37.9099 115.981 35.5699H117.461C117.541 37.0699 118.861 38.0499 120.821 38.0499C122.921 38.0499 124.261 37.0299 124.261 35.3899C124.261 34.1099 123.541 33.2699 122.001 32.9099L119.581 32.3099C117.341 31.7699 116.161 30.4899 116.161 28.5299ZM130.211 39.1299H128.851V30.6099H126.911V29.4499H128.851V26.3899H130.211V29.4499H132.151V30.6099H130.211V39.1299ZM133.17 34.2899C133.17 31.3299 135.25 29.1899 138.09 29.1899C140.93 29.1899 143.01 31.3299 143.01 34.2899C143.01 37.2299 140.93 39.3699 138.09 39.3699C135.25 39.3699 133.17 37.2299 133.17 34.2899ZM134.57 34.2699C134.57 36.5499 136.01 38.1299 138.09 38.1299C140.15 38.1299 141.61 36.5499 141.61 34.2699C141.61 32.0299 140.15 30.4299 138.09 30.4299C136.01 30.4299 134.57 32.0299 134.57 34.2699ZM150.277 29.3299V30.5699H149.517C147.737 30.5699 146.597 31.7699 146.597 33.6099V39.1299H145.217V29.4499H146.517L146.617 30.9499C146.997 29.9099 148.017 29.2299 149.377 29.2299C149.677 29.2299 149.937 29.2499 150.277 29.3299ZM155.801 39.3699C152.961 39.3699 151.061 37.3299 151.061 34.2899C151.061 31.2699 152.941 29.1899 155.701 29.1899C158.321 29.1899 160.101 31.0499 160.101 33.7899V34.4699H152.401C152.501 36.8299 153.741 38.1899 155.821 38.1899C157.401 38.1899 158.421 37.5099 158.781 36.2299H160.101C159.581 38.2699 158.081 39.3699 155.801 39.3699ZM155.701 30.3699C153.881 30.3699 152.681 31.5699 152.441 33.4699H158.721C158.721 31.6099 157.521 30.3699 155.701 30.3699Z" fill="#575757"/>
</svg>
