<svg width="27" height="19" viewBox="0 0 27 19" fill="none" xmlns="http://www.w3.org/2000/svg">
<path d="M1.35 2.7H25.65C26.3955 2.7 27 2.09554 27 1.35C27 0.604463 26.3955 0 25.65 0H1.35C0.604462 0 0 0.604463 0 1.35C0 2.09554 0.604462 2.7 1.35 2.7ZM25.65 8.1H1.35C0.604462 8.1 0 8.70446 0 9.45C0 10.1955 0.604462 10.8 1.35 10.8H25.65C26.3955 10.8 27 10.1955 27 9.45C27 8.70446 26.3955 8.1 25.65 8.1ZM25.65 16.2H1.35C0.604462 16.2 0 16.8045 0 17.55C0 18.2955 0.604462 18.9 1.35 18.9H25.65C26.3955 18.9 27 18.2955 27 17.55C27 16.8045 26.3955 16.2 25.65 16.2Z" fill="#1A1A1A"/>
</svg>
