<svg width="17" height="17" viewBox="0 0 17 17" fill="none" xmlns="http://www.w3.org/2000/svg">
<path d="M9.38009 7.71396C9.61578 7.46312 9.81021 7.20825 10.0525 6.99205C10.797 6.32736 11.6779 5.99189 12.7062 6.00015C13.2714 6.00458 13.8302 6.04326 14.3749 6.19256C15.6213 6.53388 16.3455 7.34646 16.6908 8.49955C16.9499 9.36432 16.9975 10.2523 16.9992 11.1428C17.0026 13.0217 16.9935 14.9003 16.9977 16.7791C16.9982 16.955 16.9463 17.0012 16.7633 16.9996C15.7416 16.9917 14.7195 16.9915 13.6979 17C13.5181 17.0014 13.4792 16.9486 13.4798 16.7878C13.4856 15 13.4868 13.2125 13.4809 11.4247C13.4792 10.9768 13.4492 10.5291 13.3164 10.0935C13.072 9.29118 12.4658 8.88238 11.5783 8.9267C10.3665 8.98735 9.7364 9.55573 9.58196 10.7227C9.54495 11.0016 9.52751 11.2804 9.52773 11.5613C9.52943 13.2999 9.5258 15.0385 9.53261 16.7769C9.53325 16.9504 9.48751 17.0016 9.30053 17C8.2714 16.9913 7.24185 16.9923 6.21272 16.9992C6.04786 17.0004 6.00001 16.9582 6.00022 16.8001C6.0049 13.3581 6.00489 9.91598 6 6.47383C5.99979 6.30358 6.05871 6.26409 6.22867 6.26529C7.20611 6.27215 8.18377 6.27296 9.16099 6.26469C9.34095 6.26328 9.38733 6.31829 9.38329 6.47968C9.37329 6.89091 9.38009 7.30253 9.38009 7.71396Z" fill="white"/>
<path d="M3.99638 11.5157C3.99638 13.2602 3.99385 15.005 3.99999 16.7497C4.00071 16.9436 3.95844 17.0022 3.78287 16.9999C2.91564 16.989 2.04805 16.9917 1.18064 16.9985C1.04173 16.9997 0.99982 16.9599 1 16.7958C1.00416 13.2633 1.00379 9.73087 1.00072 6.19842C1.00054 6.05227 1.03161 6.00024 1.16745 6.00107C2.04732 6.00768 2.92738 6.00954 3.80725 6.00004C3.97633 5.99798 3.99945 6.07312 3.99909 6.23868C3.99494 7.99768 3.99638 9.75668 3.99638 11.5157Z" fill="white"/>
<path d="M4 1.99082C4.00083 3.09774 3.10275 3.99958 1.99907 4C0.909149 4.00042 0.00355642 3.09773 1.16304e-05 2.00793C-0.00374168 0.906227 0.901433 -0.00104214 2.00303 9.32941e-07C3.09712 0.00104401 3.99875 0.899972 4 1.99082Z" fill="white"/>
</svg>
