<svg width="139" height="30" viewBox="0 0 139 30" fill="none" xmlns="http://www.w3.org/2000/svg">
<path d="M38.7152 20.1217C38.7152 23.0773 40.1935 24.5545 43.1478 24.5545H46.6152V20.9667H44.5046C43.3885 20.9667 42.9667 20.5144 42.9667 19.4287V12.6445H49.629V9.05672H42.9667V4.7139H38.7152V7.79837C38.7152 8.42207 38.2702 8.94122 37.6806 9.05672H36.1523V12.6445H38.7152V20.1217Z" fill="white"/>
<path d="M57.07 9.05644C54.658 9.05644 53.4519 9.99017 52.607 11.3774L52.2155 9.05644H48.3555V24.5542H52.607V16.9555C52.607 14.6041 53.5723 12.9154 56.1047 12.9154H57.7934V9.05644H57.07Z" fill="white"/>
<path d="M72.6656 20.0012V16.7125V14.5143C72.6656 10.8049 70.1636 8.87546 65.8221 8.87546C61.7214 8.87546 58.947 10.8657 58.6455 13.8809H62.7462C62.9274 12.7344 64.0422 11.9806 65.7005 11.9806C67.4792 11.9806 68.4749 12.8852 68.4749 14.2724V15.0262H65.399C60.7561 15.0262 58.2832 16.8961 58.2832 20.1824C58.2832 23.1367 60.6953 24.7355 64.0422 24.7355C66.2428 24.7355 67.7418 23.9076 68.8117 22.4571L69.3077 24.5544H72.6656V20.0012ZM68.4749 18.1617C68.4445 20.2723 67.0877 21.6595 64.8568 21.6595C63.4392 21.6595 62.5651 20.9665 62.5651 19.8808C62.5651 18.5848 63.59 17.8602 65.3686 17.8602H68.4749V18.1617Z" fill="white"/>
<path d="M85.5023 10.9862C84.5078 9.71937 82.9699 8.87561 80.829 8.87561C76.6978 8.87561 73.6523 11.9808 73.6523 16.7759C73.6523 21.6901 76.6978 24.7357 80.8594 24.7357C83.0903 24.7357 84.5978 23.7411 85.6227 22.4135L86.0458 24.5545H89.7538V4.71394H85.5023V10.9862ZM81.7931 21.2682C79.4722 21.2682 77.995 19.4591 77.995 16.805C77.995 14.1522 79.4722 12.3431 81.7931 12.3431C84.1152 12.3431 85.5631 14.1826 85.5631 16.8354C85.5631 19.4591 84.1152 21.2682 81.7931 21.2682Z" fill="white"/>
<path d="M98.9642 24.7355C103.095 24.7355 105.779 22.3234 106.261 19.3082H102.07C101.708 20.755 100.502 21.5088 98.7843 21.5088C96.6433 21.5088 95.2257 20.1824 95.1358 17.9818V17.7702H106.382C106.473 17.2875 106.503 16.7757 106.503 16.3222C106.442 11.7703 103.307 8.87546 98.6627 8.87546C93.869 8.87546 90.7031 12.011 90.7031 16.8353C90.7031 21.6304 93.8082 24.7355 98.9642 24.7355ZM95.2257 14.9958C95.4677 13.1563 96.8536 12.0414 98.6931 12.0414C100.622 12.0414 101.92 13.0967 102.221 14.9958H95.2257Z" fill="white"/>
<path d="M107.984 24.5545H110.456V4.7139H107.984V24.5545Z" fill="white"/>
<path d="M111.938 24.5545H114.41V9.17709H111.938V24.5545Z" fill="white"/>
<path d="M117.955 20.5448C117.955 23.2585 119.01 24.5545 121.965 24.5545H124.407V22.2931H122.206C120.879 22.2931 120.427 21.8105 120.427 20.5144V11.4385H124.407V9.17713H120.427V4.71394H117.955V7.91878C117.955 8.54248 117.51 9.06163 116.92 9.17713H115.891V11.4385H117.955V20.5448Z" fill="white"/>
<path d="M132.035 24.7358C135.592 24.7358 138.126 22.4744 138.728 19.3985H136.226C135.714 21.3887 134.025 22.5352 131.854 22.5352C128.929 22.5352 127.089 20.4842 126.999 17.559V17.3486H138.939C138.97 16.9863 139 16.6252 139 16.2933C138.88 11.7402 136.045 8.99611 131.703 8.99611C127.362 8.99611 124.406 12.1924 124.406 16.866C124.406 21.5699 127.421 24.7358 132.035 24.7358ZM127.15 15.2976C127.391 12.7955 129.472 11.1675 131.734 11.1675C134.296 11.1675 136.105 12.6447 136.346 15.2976H127.15Z" fill="white"/>
<path d="M113.203 4.71394C115.335 4.71394 115.335 7.93945 113.203 7.93945C111.07 7.93945 111.07 4.71394 113.203 4.71394Z" fill="white"/>
<path fill-rule="evenodd" clip-rule="evenodd" d="M14.724 0C22.8562 0 29.4481 6.59205 29.4481 14.7245C29.4481 21.5147 24.8525 27.2302 18.6023 28.9323V19.0831H21.221C21.277 19.0831 21.3341 19.0625 21.3767 19.0187C21.4618 18.9336 21.4618 18.7938 21.3767 18.7087L17.1191 14.451C17.0328 14.3646 16.8942 14.3646 16.8078 14.451L12.5527 18.705C12.5114 18.7451 12.4858 18.8011 12.4858 18.8643C12.4858 18.9847 12.5843 19.0831 12.7047 19.0831H15.3246V29.4356C15.1252 29.4441 14.9246 29.449 14.724 29.449C6.59184 29.449 0 22.857 0 14.7245C0 7.93429 4.59556 2.22004 10.8458 0.516713V10.3659H8.22703C8.17111 10.3659 8.11396 10.3865 8.07141 10.4303C7.98631 10.5154 7.98631 10.6552 8.07141 10.7403L12.3302 14.9981C12.4153 15.0844 12.5551 15.0844 12.6402 14.9981L16.8954 10.744C16.9367 10.7039 16.9635 10.6479 16.9635 10.5847C16.9635 10.4644 16.865 10.3659 16.7434 10.3659H14.1247V0.0133738C14.3228 0.00486318 14.5234 0 14.724 0Z" fill="white"/>
</svg>
