<svg width="235" height="50" viewBox="0 0 235 50" fill="none" xmlns="http://www.w3.org/2000/svg">
<path d="M65.4527 34.0181C65.4527 39.015 67.9521 41.5124 72.9467 41.5124H78.8088V35.4467H75.2406C73.3537 35.4467 72.6405 34.682 72.6405 32.8465V21.3769H83.9042V15.3112H72.6405V7.96899H65.4527V13.1838C65.4527 14.2382 64.7004 15.1159 63.7035 15.3112H61.1199V21.3769H65.4527V34.0181Z" fill="#1A2779"/>
<path d="M96.4835 15.311C92.4055 15.311 90.3666 16.8896 88.938 19.235L88.2762 15.311H81.7502V41.5123H88.938V28.6655C88.938 24.6902 90.57 21.8351 94.8515 21.8351H97.7064V15.311H96.4835Z" fill="#1A2779"/>
<path d="M122.852 33.8146V28.2545V24.5382C122.852 18.2669 118.622 15.0049 111.283 15.0049C104.35 15.0049 99.6591 18.3697 99.1494 23.4673H106.082C106.389 21.529 108.273 20.2546 111.077 20.2546C114.084 20.2546 115.767 21.7839 115.767 24.1292V25.4036H110.567C102.718 25.4036 98.5369 28.5649 98.5369 34.1209C98.5369 39.1157 102.615 41.8186 108.273 41.8186C111.994 41.8186 114.528 40.4189 116.337 37.9667L117.175 41.5124H122.852V33.8146ZM115.767 30.7047C115.716 34.273 113.422 36.6183 109.651 36.6183C107.254 36.6183 105.776 35.4467 105.776 33.6111C105.776 31.42 107.509 30.1949 110.516 30.1949H115.767V30.7047Z" fill="#1A2779"/>
<path d="M144.553 18.5732C142.872 16.4314 140.272 15.0049 136.652 15.0049C129.668 15.0049 124.519 20.2546 124.519 28.3614C124.519 36.6697 129.668 41.8187 136.704 41.8187C140.475 41.8187 143.024 40.1373 144.757 37.8927L145.472 41.5124H151.741V7.96899H144.553V18.5732ZM138.282 35.9564C134.359 35.9564 131.861 32.8979 131.861 28.4108C131.861 23.9257 134.359 20.8671 138.282 20.8671C142.208 20.8671 144.656 23.9771 144.656 28.4622C144.656 32.8979 142.208 35.9564 138.282 35.9564Z" fill="#1A2779"/>
<path d="M167.313 41.8186C174.297 41.8186 178.834 37.7406 179.65 32.643H172.565C171.952 35.089 169.913 36.3634 167.009 36.3634C163.389 36.3634 160.993 34.1209 160.84 30.4004V30.0428H179.853C180.007 29.2268 180.059 28.3614 180.059 27.5947C179.956 19.899 174.655 15.0049 166.803 15.0049C158.699 15.0049 153.346 20.306 153.346 28.4621C153.346 36.5689 158.596 41.8186 167.313 41.8186ZM160.993 25.3522C161.402 22.2422 163.745 20.3574 166.855 20.3574C170.117 20.3574 172.31 22.1415 172.819 25.3522H160.993Z" fill="#1A2779"/>
<path d="M182.562 41.5124H186.741V7.96899H182.562V41.5124Z" fill="#0069FF"/>
<path d="M189.244 41.5126H193.425V15.5149H189.244V41.5126Z" fill="#0069FF"/>
<path d="M199.419 34.7334C199.419 39.3213 201.203 41.5124 206.198 41.5124H210.327V37.6892H206.607C204.362 37.6892 203.597 36.8732 203.597 34.682V19.3379H210.327V15.5147H203.597V7.96899H199.419V13.3872C199.419 14.4417 198.667 15.3194 197.67 15.5147H195.929V19.3379H199.419V34.7334Z" fill="#0069FF"/>
<path d="M223.224 41.8185C229.239 41.8185 233.522 37.9953 234.539 32.795H230.309C229.444 36.1598 226.589 38.0981 222.918 38.0981C217.973 38.0981 214.863 34.6305 214.711 29.685V29.3294H234.897C234.948 28.7169 235 28.1064 235 27.5453C234.796 19.8475 230.003 15.2083 222.663 15.2083C215.323 15.2083 210.327 20.6121 210.327 28.5134C210.327 36.466 215.424 41.8185 223.224 41.8185ZM214.966 25.8618C215.373 21.6316 218.892 18.8793 222.715 18.8793C227.047 18.8793 230.106 21.3768 230.513 25.8618H214.966Z" fill="#0069FF"/>
<path d="M191.386 7.96899C194.991 7.96899 194.991 13.4222 191.386 13.4222C187.781 13.4222 187.781 7.96899 191.386 7.96899Z" fill="#0069FF"/>
<path fill-rule="evenodd" clip-rule="evenodd" d="M24.8932 0C38.6418 0 49.7863 11.1448 49.7863 24.8939C49.7863 36.3738 42.0168 46.0366 31.4499 48.9143V32.2629H35.8773C35.9719 32.2629 36.0685 32.2279 36.1404 32.1539C36.2843 32.01 36.2843 31.7736 36.1404 31.6298L28.9423 24.4315C28.7964 24.2855 28.5621 24.2855 28.4161 24.4315L21.2222 31.6236C21.1523 31.6914 21.1091 31.786 21.1091 31.8929C21.1091 32.0964 21.2756 32.2629 21.4791 32.2629H25.9085V49.7653C25.5714 49.7797 25.2323 49.7879 24.8932 49.7879C11.1445 49.7879 0 38.6431 0 24.8939C0 13.4141 7.76948 3.75331 18.3364 0.87358V17.525H13.909C13.8145 17.525 13.7179 17.56 13.6459 17.634C13.502 17.7779 13.502 18.0142 13.6459 18.1581L20.846 25.3564C20.9899 25.5024 21.2263 25.5024 21.3702 25.3564L28.5641 18.1643C28.634 18.0965 28.6792 18.0019 28.6792 17.895C28.6792 17.6915 28.5127 17.525 28.3072 17.525H23.8798V0.0226103C24.2149 0.00822193 24.554 0 24.8932 0Z" fill="#0069FF"/>
</svg>
