<svg width="205" height="64" viewBox="0 0 205 64" fill="none" xmlns="http://www.w3.org/2000/svg">
<rect x="0.470703" y="0.5" width="204.29" height="63" rx="10" fill="white"/>
<g clip-path="url(#clip0_441_2399)">
<path d="M32.7296 20.2966C32.4461 20.5791 32.3516 21.0516 32.3516 21.6185V42.4976C32.3516 43.0646 32.5406 43.537 32.8241 43.8205L32.9177 43.9149L44.6258 32.2002V32.0113L32.7296 20.2957V20.2966ZM48.4967 36.1678L44.6258 32.2947V32.0113L48.4958 28.1373L48.5912 28.2317L53.2172 30.8774C54.5393 31.6333 54.5393 32.8617 53.2172 33.6167L48.4967 36.1678Z" fill="#322030"/>
<path d="M44.6258 32.0113V32.2002L32.9177 43.9149L32.8241 43.8205C32.5406 43.537 32.3516 43.0645 32.3516 42.4976V21.6185C32.3516 21.0516 32.4461 20.5791 32.7296 20.2966V20.2957L44.6258 32.0113ZM44.6258 32.0113V32.2947L48.4967 36.1678L53.2172 33.6167C54.5393 32.8617 54.5393 31.6333 53.2172 30.8774L48.5912 28.2317L48.4958 28.1373L44.6258 32.0113Z" stroke="white" stroke-width="1.51721" stroke-linecap="round" stroke-linejoin="round"/>
<path d="M48.4976 36.0732L44.5322 32.1047L32.7305 43.9157C33.2021 44.3882 33.8627 44.3882 34.7132 44.0102L48.4976 36.0732ZM48.4976 28.138L34.7132 20.2964C33.8627 19.824 33.2021 19.9185 32.7305 20.3909L44.5322 32.1065L48.4976 28.138Z" fill="#322030" stroke="white" stroke-width="1.51721" stroke-linecap="round" stroke-linejoin="round"/>
</g>
<path d="M74.8845 26.4299C71.5845 26.4299 69.5045 28.8699 69.5045 32.5299C69.5045 36.2499 71.7045 38.5099 74.9245 38.5099C77.3245 38.5099 79.6645 37.3499 79.6645 33.9099V33.1699H74.4845V31.8899H81.0245V39.6499H79.8845L79.7445 37.3699C78.9845 38.7899 77.1845 39.8699 74.8645 39.8699C70.8045 39.8699 68.0045 36.9499 68.0045 32.5299C68.0045 28.1499 70.8045 25.0699 74.9045 25.0699C77.9245 25.0699 80.2645 26.7899 80.8245 29.3899H79.2645C78.6645 27.4299 76.9845 26.4299 74.8845 26.4299ZM82.9045 34.7899C82.9045 31.8299 84.9845 29.6899 87.8245 29.6899C90.6645 29.6899 92.7445 31.8299 92.7445 34.7899C92.7445 37.7299 90.6645 39.8699 87.8245 39.8699C84.9845 39.8699 82.9045 37.7299 82.9045 34.7899ZM84.3045 34.7699C84.3045 37.0499 85.7445 38.6299 87.8245 38.6299C89.8845 38.6299 91.3445 37.0499 91.3445 34.7699C91.3445 32.5299 89.8845 30.9299 87.8245 30.9299C85.7445 30.9299 84.3045 32.5299 84.3045 34.7699ZM94.2717 34.7899C94.2717 31.8299 96.3517 29.6899 99.1917 29.6899C102.032 29.6899 104.112 31.8299 104.112 34.7899C104.112 37.7299 102.032 39.8699 99.1917 39.8699C96.3517 39.8699 94.2717 37.7299 94.2717 34.7899ZM95.6717 34.7699C95.6717 37.0499 97.1117 38.6299 99.1917 38.6299C101.252 38.6299 102.712 37.0499 102.712 34.7699C102.712 32.5299 101.252 30.9299 99.1917 30.9299C97.1117 30.9299 95.6717 32.5299 95.6717 34.7699ZM105.659 34.5099C105.659 31.8699 107.359 29.6899 110.199 29.6899C111.879 29.6899 113.159 30.4699 113.779 31.8899L113.919 29.9499H115.119V39.3299C115.119 42.2099 113.279 44.0899 110.439 44.0899C107.959 44.0899 106.219 42.6899 105.839 40.3499H107.219C107.519 41.9099 108.719 42.8299 110.459 42.8299C112.439 42.8299 113.759 41.4899 113.759 39.4699V37.1699C113.099 38.5299 111.759 39.3299 110.099 39.3299C107.339 39.3299 105.659 37.1499 105.659 34.5099ZM107.039 34.4899C107.039 36.4699 108.259 38.0899 110.299 38.0899C112.399 38.0899 113.639 36.5699 113.639 34.4899C113.639 32.4299 112.439 30.9099 110.319 30.9099C108.239 30.9099 107.039 32.5299 107.039 34.4899ZM119.439 39.6299H118.059V25.0499H119.439V39.6299ZM126.434 39.8699C123.594 39.8699 121.694 37.8299 121.694 34.7899C121.694 31.7699 123.574 29.6899 126.334 29.6899C128.954 29.6899 130.734 31.5499 130.734 34.2899V34.9699H123.034C123.134 37.3299 124.374 38.6899 126.454 38.6899C128.034 38.6899 129.054 38.0099 129.414 36.7299H130.734C130.214 38.7699 128.714 39.8699 126.434 39.8699ZM126.334 30.8699C124.514 30.8699 123.314 32.0699 123.074 33.9699H129.354C129.354 32.1099 128.154 30.8699 126.334 30.8699ZM144.247 34.3699H140.227V39.6299H138.787V25.3099H144.247C147.007 25.3099 148.747 27.1099 148.747 29.8099C148.747 32.4099 146.987 34.3699 144.247 34.3699ZM144.047 26.6099H140.227V33.0699H143.967C146.047 33.0699 147.247 31.7499 147.247 29.7899C147.247 27.8099 146.027 26.6099 144.047 26.6099ZM152.212 39.6299H150.832V25.0499H152.212V39.6299ZM157.927 39.8699C155.867 39.8699 154.647 38.7099 154.647 37.0099C154.647 35.2299 156.007 34.1099 158.267 33.9299L161.467 33.6699V33.3499C161.467 31.4499 160.327 30.8499 158.907 30.8499C157.227 30.8499 156.227 31.6099 156.227 32.9099H154.967C154.967 30.9499 156.567 29.6899 158.947 29.6899C161.187 29.6899 162.827 30.8099 162.827 33.3699V39.6299H161.667L161.487 37.9299C160.887 39.1499 159.567 39.8699 157.927 39.8699ZM158.247 38.7499C160.287 38.7499 161.467 37.3299 161.467 35.2299V34.7099L158.607 34.9299C156.787 35.0899 156.047 35.8899 156.047 36.9699C156.047 38.1499 156.927 38.7499 158.247 38.7499ZM164.401 43.8499V42.7099H165.461C166.301 42.7099 167.141 42.6499 167.621 41.3499L168.041 40.2099L164.121 29.9499H165.581L168.701 38.3899L171.761 29.9499H173.181L168.741 41.8499C168.181 43.3699 167.241 43.9899 165.861 43.9899C165.281 43.9899 164.841 43.9499 164.401 43.8499Z" fill="#575757"/>
<defs>
<clipPath id="clip0_441_2399">
<rect width="24.3" height="27" fill="white" transform="translate(31.4512 18.6299)"/>
</clipPath>
</defs>
</svg>
