<svg width="203" height="62" viewBox="0 0 203 62" fill="none" xmlns="http://www.w3.org/2000/svg">
<rect x="0.5" y="0.5" width="202" height="61" rx="10" fill="#18181B"/>
<path d="M75.576 45.0019H73.8031L73.6011 42.7601C73.2122 43.4625 72.5763 44.0678 71.6936 44.5759C70.8109 45.0841 69.7487 45.3381 68.5069 45.3381C67.1455 45.3381 65.8888 45.0318 64.7368 44.419C63.5848 43.7913 62.6348 42.8348 61.8867 41.5495C61.1537 40.2643 60.7871 38.7623 60.7871 37.0436C60.7871 35.3249 61.1761 33.8229 61.9541 32.5376C62.732 31.2524 63.7045 30.3034 64.8714 29.6906C66.0534 29.0779 67.3176 28.7715 68.664 28.7715C70.3696 28.7715 71.8507 29.2124 73.1074 30.0941C74.3791 30.9609 75.2469 32.1192 75.7106 33.5689L73.7134 34.4207C73.3543 33.27 72.7259 32.3807 71.8283 31.753C70.9456 31.1104 69.8908 30.7891 68.664 30.7891C67.1231 30.7891 65.799 31.3346 64.6919 32.4256C63.5848 33.5166 63.0312 35.0559 63.0312 37.0436C63.0312 39.0462 63.5698 40.6005 64.647 41.7065C65.7392 42.7975 67.0483 43.343 68.5743 43.343C69.4121 43.343 70.1527 43.2085 70.796 42.9394C71.4543 42.6704 71.9629 42.3192 72.322 41.8858C72.696 41.4375 72.9728 40.9891 73.1523 40.5408C73.3468 40.0924 73.459 39.644 73.4889 39.1957H67.9684V37.2229H75.576V45.0019ZM80.954 42.4463C81.6123 43.1188 82.4127 43.455 83.3552 43.455C84.2978 43.455 85.0907 43.1188 85.734 42.4463C86.3923 41.7588 86.7215 40.8098 86.7215 39.5992C86.7215 38.4036 86.3923 37.4695 85.734 36.797C85.0907 36.1095 84.2978 35.7658 83.3552 35.7658C82.4127 35.7658 81.6123 36.1095 80.954 36.797C80.3107 37.4695 79.989 38.4036 79.989 39.5992C79.989 40.8098 80.3107 41.7588 80.954 42.4463ZM79.3831 35.5192C80.4304 34.4282 81.7544 33.8827 83.3552 33.8827C84.9561 33.8827 86.2726 34.4282 87.3049 35.5192C88.3522 36.5952 88.8758 37.9552 88.8758 39.5992C88.8758 41.2581 88.3597 42.6331 87.3274 43.7241C86.2951 44.8001 84.971 45.3381 83.3552 45.3381C81.7395 45.3381 80.4154 44.8001 79.3831 43.7241C78.3508 42.6331 77.8347 41.2581 77.8347 39.5992C77.8347 37.9552 78.3508 36.5952 79.3831 35.5192ZM93.7965 42.4463C94.4548 43.1188 95.2552 43.455 96.1977 43.455C97.1403 43.455 97.9332 43.1188 98.5765 42.4463C99.2348 41.7588 99.5639 40.8098 99.5639 39.5992C99.5639 38.4036 99.2348 37.4695 98.5765 36.797C97.9332 36.1095 97.1403 35.7658 96.1977 35.7658C95.2552 35.7658 94.4548 36.1095 93.7965 36.797C93.1532 37.4695 92.8315 38.4036 92.8315 39.5992C92.8315 40.8098 93.1532 41.7588 93.7965 42.4463ZM92.2256 35.5192C93.2728 34.4282 94.5969 33.8827 96.1977 33.8827C97.7985 33.8827 99.1151 34.4282 100.147 35.5192C101.195 36.5952 101.718 37.9552 101.718 39.5992C101.718 41.2581 101.202 42.6331 100.17 43.7241C99.1375 44.8001 97.8135 45.3381 96.1977 45.3381C94.5819 45.3381 93.2579 44.8001 92.2256 43.7241C91.1933 42.6331 90.6771 41.2581 90.6771 39.5992C90.6771 37.9552 91.1933 36.5952 92.2256 35.5192ZM103.632 45.5847L105.674 45.114C105.749 45.8762 106.055 46.5038 106.594 46.997C107.133 47.5052 107.806 47.7592 108.614 47.7592C110.813 47.7592 111.913 46.5935 111.913 44.2621V42.7153C111.643 43.2383 111.217 43.6643 110.634 43.9931C110.065 44.3219 109.392 44.4863 108.614 44.4863C107.178 44.4863 105.988 44.0005 105.046 43.0291C104.118 42.0427 103.654 40.7873 103.654 39.2629C103.654 37.7834 104.118 36.5429 105.046 35.5416C105.973 34.5253 107.163 34.0172 108.614 34.0172C110.259 34.0172 111.367 34.5851 111.935 35.721V34.219H114.022V44.1948C114.022 44.9122 113.925 45.5773 113.731 46.19C113.551 46.8177 113.259 47.3931 112.855 47.9162C112.451 48.4392 111.883 48.8502 111.15 49.1491C110.432 49.448 109.586 49.5975 108.614 49.5975C107.282 49.5975 106.153 49.2164 105.225 48.4542C104.298 47.7069 103.766 46.7504 103.632 45.5847ZM108.928 42.7153C109.841 42.7153 110.581 42.4014 111.15 41.7737C111.718 41.1311 112.002 40.2942 112.002 39.2629C112.002 38.2317 111.718 37.4023 111.15 36.7746C110.581 36.1319 109.841 35.8106 108.928 35.8106C108 35.8106 107.245 36.1245 106.661 36.7522C106.093 37.3799 105.809 38.2168 105.809 39.2629C105.809 40.324 106.085 41.1684 106.639 41.7961C107.207 42.4089 107.97 42.7153 108.928 42.7153ZM119.5 45.0019H117.391V28.7715H119.5V45.0019ZM124.458 38.5007H130.36C130.33 37.6937 130.06 37.0361 129.552 36.528C129.043 36.0049 128.325 35.7434 127.397 35.7434C126.56 35.7434 125.871 36.0199 125.333 36.5728C124.794 37.1109 124.503 37.7535 124.458 38.5007ZM130.674 41.303L132.492 41.9306C132.177 42.932 131.594 43.7539 130.741 44.3966C129.888 45.0243 128.856 45.3381 127.644 45.3381C126.133 45.3381 124.847 44.8225 123.784 43.7913C122.737 42.7452 122.213 41.3403 122.213 39.5768C122.213 37.9328 122.722 36.5728 123.739 35.4968C124.757 34.4207 125.969 33.8827 127.375 33.8827C129.006 33.8827 130.277 34.3983 131.19 35.4295C132.103 36.4458 132.559 37.8133 132.559 39.532C132.559 39.801 132.544 40.0251 132.514 40.2045H124.39C124.405 41.161 124.719 41.9456 125.333 42.5583C125.961 43.1711 126.732 43.4775 127.644 43.4775C129.185 43.4775 130.195 42.7526 130.674 41.303ZM143.286 36.528H146.473C147.415 36.528 148.163 36.2889 148.717 35.8106C149.27 35.3174 149.547 34.6599 149.547 33.8379C149.547 33.0009 149.27 32.3359 148.717 31.8427C148.163 31.3346 147.415 31.0805 146.473 31.0805H143.286V36.528ZM146.877 38.5007H143.286V45.0019H141.087V29.1077H146.877C148.328 29.1077 149.51 29.5561 150.422 30.4528C151.335 31.3495 151.791 32.4704 151.791 33.8155C151.791 35.1755 151.335 36.2963 150.422 37.1781C149.51 38.0599 148.328 38.5007 146.877 38.5007ZM156.143 45.0019H154.033V28.7715H156.143V45.0019ZM159.058 42.11C159.058 41.1834 159.357 40.4436 159.956 39.8906C160.554 39.3227 161.347 38.9715 162.334 38.837L165.252 38.4111C165.805 38.3364 166.082 38.0673 166.082 37.604C166.082 37.0361 165.888 36.5728 165.499 36.2141C165.11 35.8555 164.526 35.6761 163.748 35.6761C163.03 35.6761 162.462 35.8779 162.043 36.2814C161.624 36.67 161.377 37.193 161.302 37.8506L159.282 37.3799C159.387 36.3487 159.858 35.5117 160.696 34.8691C161.534 34.2115 162.536 33.8827 163.703 33.8827C165.229 33.8827 166.359 34.2563 167.092 35.0036C167.825 35.7359 168.192 36.6774 168.192 37.8282V43.2309C168.192 43.8735 168.237 44.4638 168.326 45.0019H166.262C166.187 44.5535 166.149 44.0678 166.149 43.5447C165.85 44.023 165.409 44.4414 164.825 44.8001C164.257 45.1588 163.539 45.3381 162.671 45.3381C161.609 45.3381 160.741 45.0243 160.068 44.3966C159.395 43.7539 159.058 42.9917 159.058 42.11ZM162.963 43.5671C163.905 43.5671 164.661 43.3131 165.229 42.8049C165.798 42.2968 166.082 41.4898 166.082 40.3838V39.8906L162.783 40.3838C162.305 40.4586 161.923 40.6304 161.639 40.8994C161.354 41.1684 161.212 41.5346 161.212 41.9979C161.212 42.4164 161.369 42.7825 161.684 43.0964C162.013 43.4102 162.439 43.5671 162.963 43.5671ZM173.953 49.5078H171.641L174.334 43.8137L169.689 34.219H172.112L175.479 41.6616L178.71 34.219H180.977L173.953 49.5078Z" fill="white"/>
<path opacity="0.6" d="M67.0273 20.4486V17.2973H64.0009V18.3222H65.9159C65.8475 18.7492 65.4115 19.5007 64.2916 19.5007C63.2742 19.5007 62.3766 18.7919 62.3766 17.4254C62.3766 15.9907 63.3683 15.3673 64.283 15.3673C65.2662 15.3673 65.7706 15.9907 65.9244 16.5287L67.0529 16.1274C66.7537 15.1965 65.8731 14.2656 64.283 14.2656C62.6416 14.2656 61.1797 15.4698 61.1797 17.4254C61.1797 19.3811 62.5732 20.5767 64.2061 20.5767C65.1208 20.5767 65.7193 20.1668 65.9928 19.7569L66.0698 20.4486H67.0273ZM73.6165 20.4486V19.3384H71.0005V17.9378H73.3686V16.8874H71.0005V15.5039H73.6165V14.3937H69.8207V20.4486H73.6165ZM80.9623 15.5125V14.3937H75.944V15.5125H77.859V20.4486H79.0473V15.5125H80.9623ZM88.3078 20.4486V14.3937H87.1109V20.4486H88.3078ZM95.7563 15.5125V14.3937H90.738V15.5125H92.653V20.4486H93.8413V15.5125H95.7563ZM102.768 17.4169C102.768 16.0505 103.726 15.4015 104.658 15.4015C105.598 15.4015 106.556 16.0505 106.556 17.4169C106.556 18.7833 105.598 19.4324 104.658 19.4324C103.726 19.4324 102.768 18.7833 102.768 17.4169ZM101.546 17.4254C101.546 19.3726 103.016 20.5767 104.658 20.5767C106.308 20.5767 107.778 19.3726 107.778 17.4254C107.778 15.4698 106.308 14.2656 104.658 14.2656C103.016 14.2656 101.546 15.4698 101.546 17.4254ZM115.577 20.4486V14.3937H114.397V18.399L111.874 14.3937H110.404V20.4486H111.584V16.153L114.337 20.4486H115.577Z" fill="white"/>
<path d="M26.7119 44.5639C26.0789 44.9726 25.3187 45.0961 24.6055 44.9278L37.1375 32.4092L41.1991 36.4665L26.7119 44.5639Z" fill="white"/>
<path d="M23.0507 43.9104C22.7012 43.4463 22.5 42.8763 22.5 42.2734V19.9739C22.5 19.371 22.7012 18.8011 23.0507 18.3369L35.851 31.1236L23.0507 43.9104Z" fill="white"/>
<path d="M46.5013 33.504L42.8509 35.5442L38.4258 31.1238L42.8512 26.7031L46.5019 28.7436C47.3765 29.233 47.8986 30.1228 47.8986 31.1238C47.8986 32.1248 47.3765 33.0144 46.5013 33.504Z" fill="white"/>
<path d="M37.1366 29.8383L24.6055 17.3204C24.8109 17.272 25.02 17.2461 25.229 17.2461C25.7458 17.2461 26.2607 17.3929 26.7111 17.6836L41.1984 25.7809L37.1366 29.8383Z" fill="white"/>
</svg>
