<svg width="29" height="30" viewBox="0 0 29 30" fill="none" xmlns="http://www.w3.org/2000/svg">
<path fill-rule="evenodd" clip-rule="evenodd" d="M14.1945 0.805084C22.0342 0.805084 28.3889 7.16004 28.3889 15C28.3889 21.546 23.9587 27.0559 17.9332 28.6968V19.2019H20.4578C20.5117 19.2019 20.5668 19.1819 20.6078 19.1397C20.6899 19.0577 20.6899 18.9229 20.6078 18.8409L16.5034 14.7363C16.4201 14.6531 16.2865 14.6531 16.2033 14.7363L12.1012 18.8373C12.0614 18.876 12.0368 18.9299 12.0368 18.9909C12.0368 19.1069 12.1317 19.2019 12.2477 19.2019H14.7734V29.182C14.5812 29.1902 14.3878 29.1949 14.1945 29.1949C6.35475 29.1949 0 22.84 0 15C0 8.454 4.43028 2.94528 10.4557 1.30321V10.7981H7.93113C7.87722 10.7981 7.82213 10.8181 7.78111 10.8603C7.69907 10.9423 7.69907 11.0771 7.78111 11.1591L11.8867 15.2637C11.9688 15.3469 12.1036 15.3469 12.1856 15.2637L16.2877 11.1626C16.3276 11.124 16.3533 11.0701 16.3533 11.0091C16.3533 10.8931 16.2584 10.7981 16.1412 10.7981H13.6167V0.817977C13.8077 0.809772 14.0011 0.805084 14.1945 0.805084Z" fill="#0069FF"/>
</svg>
