<svg width="20" height="16" viewBox="0 0 20 16" fill="none" xmlns="http://www.w3.org/2000/svg">
<path d="M6.28893 16C13.837 16 17.9648 9.84496 17.9648 4.50772C17.9648 4.33285 17.9602 4.15866 17.9533 3.98559C18.7546 3.41545 19.4505 2.70399 20 1.8943C19.2651 2.21565 18.473 2.43246 17.6442 2.53004C18.4913 2.03021 19.1415 1.23876 19.4483 0.295665C18.6539 0.758538 17.777 1.09498 16.843 1.27617C16.092 0.49104 15.0275 9.53674e-07 13.8462 9.53674e-07C11.5797 9.53674e-07 9.74358 1.8089 9.74358 4.03875C9.74358 4.35583 9.77794 4.66411 9.84891 4.95977C6.43774 4.79098 3.41575 3.18378 1.39194 0.739833C1.03937 1.33634 0.835623 2.0302 0.835623 2.76981C0.835623 4.17127 1.55906 5.40823 2.66254 6.13206C1.98947 6.11156 1.3553 5.92946 0.803563 5.62659C0.801273 5.64349 0.801282 5.66039 0.801282 5.67819C0.801282 7.63447 2.21611 9.26762 4.0934 9.63809C3.75 9.73026 3.38598 9.78006 3.01281 9.78006C2.74725 9.78006 2.49083 9.75436 2.24129 9.70726C2.76327 11.312 4.27884 12.4798 6.07372 12.5127C4.67033 13.5959 2.90065 14.2416 0.977569 14.2416C0.647899 14.2416 0.320513 14.2231 0 14.1857C1.81548 15.3312 3.97208 16 6.28893 16Z" fill="white"/>
</svg>
